<svg xmlns="http://www.w3.org/2000/svg" width="171.383" height="55" viewBox="0 0 171.383 55">
  <g id="AsseIII_MENTOR" transform="translate(-6.6 -4.6)">
    <g id="Group_11" data-name="Group 11" transform="translate(6.6 4.6)">
      <g id="Group_1" data-name="Group 1" transform="translate(0 0)">
        <path id="Path_14" data-name="Path 14" d="M10.9,4.6H6.6V17.822c1.4-.254,2.822-.509,4.3-.763Z" transform="translate(-6.6 -4.6)" fill="#9698c8"/>
        <path id="Path_15" data-name="Path 15" d="M109.226,15.05h3.509V11.414h-3.509V7.6H104.98v3.84H103.2v3.636h1.78v1.653c1.4-.1,2.822-.2,4.246-.305Z" transform="translate(-78.637 -6.837)" fill="#9698c8"/>
        <path id="Path_16" data-name="Path 16" d="M159.091,24.833a2.827,2.827,0,0,1,2.39,1.17l4.272-.076a6.694,6.694,0,0,0-6.662-4.526,7.19,7.19,0,0,0-6.891,4.908c1.449-.076,2.9-.127,4.374-.178a2.941,2.941,0,0,1,2.517-1.3" transform="translate(-115.177 -17.128)" fill="#9698c8"/>
        <path id="Path_17" data-name="Path 17" d="M227.977,26.061a6.2,6.2,0,0,1,1.221-.127h.229v-4.45c-2.517-.1-3.916,1.221-4.78,3.306V21.764H220.4v4.221h.229c2.466,0,4.908.025,7.349.076" transform="translate(-166.036 -17.187)" fill="#9698c8"/>
        <path id="Path_18" data-name="Path 18" d="M275.1,25.934h.229v-4.45c-2.517-.1-3.916,1.221-4.78,3.306V21.764H266.3v4.4c2.212.076,4.4.153,6.56.254a4.832,4.832,0,0,1,2.238-.483" transform="translate(-200.264 -17.187)" fill="#9698c8"/>
        <path id="Path_19" data-name="Path 19" d="M317.493,24.907a3.048,3.048,0,0,1,3.026,2.517c1.4.127,2.772.254,4.119.407-.559-3.484-2.848-6.331-7.145-6.331a7.217,7.217,0,0,0-6.993,5.162c1.373.076,2.746.178,4.094.28a3.041,3.041,0,0,1,2.9-2.034" transform="translate(-233.225 -17.203)" fill="#9698c8"/>
        <path id="Path_20" data-name="Path 20" d="M378.521,28.469v-.051a3.654,3.654,0,0,1,7.3,0v.051a3.084,3.084,0,0,1-.178,1.093c1.5.254,2.95.509,4.374.763V21.68h-4.246v1.958a6.1,6.1,0,0,0-4.831-2.238,6.559,6.559,0,0,0-6.637,6.56c1.424.153,2.848.331,4.221.509q0,.038,0,0" transform="translate(-280.802 -17.128)" fill="#9698c8"/>
        <path id="Path_21" data-name="Path 21" d="M44.55,25.441a3.056,3.056,0,0,1,2.441,0,2.725,2.725,0,0,1,1.7,2.365c1.348-.153,2.721-.28,4.094-.407A7.44,7.44,0,0,0,45.8,21.5a6.817,6.817,0,0,0-3.2.865A7.488,7.488,0,0,0,38.6,29.077c1.4-.2,2.8-.407,4.246-.585a2.864,2.864,0,0,1,1.7-3.051" transform="translate(-30.463 -17.203)" fill="#9698c8"/>
      </g>
      <g id="Group_2" data-name="Group 2" transform="translate(0 8.798)">
        <path id="Path_22" data-name="Path 22" d="M10.9,60.694V53.6c-1.475.254-2.9.509-4.3.763v6.331Z" transform="translate(-6.6 -49.938)" fill="#0f218b"/>
        <path id="Path_23" data-name="Path 23" d="M114.548,52.447a6.239,6.239,0,0,0,3.356-.865V48.176a4.377,4.377,0,0,1-2.085.534c-.941,0-1.373-.483-1.373-1.449V42.2c-1.424.1-2.848.2-4.246.305v5.442c0,3.458,1.755,4.5,4.348,4.5" transform="translate(-83.857 -41.437)" fill="#0f218b"/>
        <path id="Path_24" data-name="Path 24" d="M150.125,42.556a7.921,7.921,0,0,0,13.96,4.933l-2.441-2.161a4.886,4.886,0,0,1-3.636,1.526,3.488,3.488,0,0,1-3.662-2.924h10.425c.025-.381.051-.788.051-1.119a9.991,9.991,0,0,0-.636-3.611c-1.424.025-2.848.025-4.272.076a4.431,4.431,0,0,1,.763,2.009H154.27a5.011,5.011,0,0,1,.712-1.882c-1.475.051-2.924.1-4.374.178a8.37,8.37,0,0,0-.509,2.9v.076Z" transform="translate(-113.611 -39.2)" fill="#0f218b"/>
        <path id="Path_25" data-name="Path 25" d="M224.646,49.956V44.438c0-3.026,1.246-4.7,3.331-5.162-2.416-.051-4.882-.076-7.349-.076H220.4V49.956Z" transform="translate(-166.036 -39.2)" fill="#0f218b"/>
        <path id="Path_26" data-name="Path 26" d="M270.546,50.478V44.96c0-2.492.839-4.068,2.314-4.806-2.161-.1-4.348-.178-6.56-.254V50.478Z" transform="translate(-200.264 -39.722)" fill="#0f218b"/>
        <path id="Path_27" data-name="Path 27" d="M308.825,44.5a7.921,7.921,0,0,0,13.96,4.933l-2.441-2.161a4.886,4.886,0,0,1-3.636,1.526,3.488,3.488,0,0,1-3.662-2.924h10.425c.025-.381.051-.788.051-1.119a10.3,10.3,0,0,0-.153-1.78c-1.348-.153-2.721-.28-4.119-.407a5.079,5.079,0,0,1,.127.661H312.97a5.019,5.019,0,0,1,.331-1.144c-1.348-.1-2.721-.178-4.094-.28a8.821,8.821,0,0,0-.407,2.619V44.5Z" transform="translate(-231.957 -41.139)" fill="#0f218b"/>
        <path id="Path_28" data-name="Path 28" d="M374.2,47.932a6.574,6.574,0,0,0,6.637,6.993,5.8,5.8,0,0,0,4.882-2.441v.737c0,2.67-1.373,4.068-4.272,4.068a9.841,9.841,0,0,1-5.06-1.373L374.937,59.1a14.1,14.1,0,0,0,6.611,1.577c2.9,0,5.06-.61,6.459-2.009,1.246-1.246,1.907-3.2,1.907-5.9v-2.95q-2.136-.42-4.348-.763a3.539,3.539,0,0,1-3.484,2.365,3.417,3.417,0,0,1-3.636-3.407c-1.4-.178-2.8-.356-4.221-.509,0,.127-.025.28-.025.407Z" transform="translate(-280.728 -45.39)" fill="#0f218b"/>
        <path id="Path_29" data-name="Path 29" d="M78.251,45.893v8.239H82.5v-7.45a8.891,8.891,0,0,0-.2-1.882c-1.373.127-2.746.254-4.094.407a2.9,2.9,0,0,1,.051.687" transform="translate(-59.994 -43.376)" fill="#0f218b"/>
        <path id="Path_30" data-name="Path 30" d="M38.4,49.865v7.4h4.246V49c-1.449.178-2.848.381-4.246.585v.28Z" transform="translate(-30.314 -46.508)" fill="#0f218b"/>
      </g>
      <rect id="Rectangle_20" data-name="Rectangle 20" width="29.344" height="19.554" transform="translate(120.222 2.492)" fill="#0f218b"/>
      <g id="Group_3" data-name="Group 3" transform="translate(127.469 4.806)">
        <path id="Path_31" data-name="Path 31" d="M533.507,25.433l.61-.458.61.458L534.5,24.7l.636-.432h-.788l-.229-.763-.229.763H533.1l.636.432Z" transform="translate(-526.692 -23.5)" fill="#ffff01"/>
        <path id="Path_32" data-name="Path 32" d="M520.907,28.833l.61-.458.61.458L521.9,28.1l.636-.458h-.788l-.229-.737-.229.737H520.5l.636.458Z" transform="translate(-517.296 -26.035)" fill="#ffff01"/>
        <path id="Path_33" data-name="Path 33" d="M512.317,36.2l-.254.737H511.3l.636.458-.254.712.636-.432.61.432L512.7,37.4l.636-.458h-.788Z" transform="translate(-510.435 -32.971)" fill="#ffff01"/>
        <path id="Path_34" data-name="Path 34" d="M508.917,50.249l.61.458-.229-.737.636-.432h-.788l-.229-.737-.229.737H507.9l.636.432-.229.737Z" transform="translate(-507.9 -42.367)" fill="#ffff01"/>
        <path id="Path_35" data-name="Path 35" d="M512.546,62.137l-.229-.737-.254.737H511.3l.636.458-.254.712.636-.432.61.432L512.7,62.6l.636-.458Z" transform="translate(-510.435 -51.763)" fill="#ffff01"/>
        <path id="Path_36" data-name="Path 36" d="M521.746,71.337l-.229-.737-.229.737H520.5l.636.458-.229.737.61-.458.61.458L521.9,71.8l.636-.458Z" transform="translate(-517.296 -58.624)" fill="#ffff01"/>
        <path id="Path_37" data-name="Path 37" d="M534.346,74.737,534.117,74l-.229.737H533.1l.636.432-.229.737.61-.458.61.458-.229-.737.636-.432Z" transform="translate(-526.692 -61.159)" fill="#ffff01"/>
        <path id="Path_38" data-name="Path 38" d="M546.946,71.337l-.229-.737-.254.737H545.7l.636.458-.254.737.636-.458.61.458L547.1,71.8l.636-.458Z" transform="translate(-536.088 -58.624)" fill="#ffff01"/>
        <path id="Path_39" data-name="Path 39" d="M556.146,62.137l-.229-.737-.229.737H554.9l.636.458-.229.712.61-.432.61.432L556.3,62.6l.636-.458Z" transform="translate(-542.949 -51.763)" fill="#ffff01"/>
        <path id="Path_40" data-name="Path 40" d="M560.309,49.437h-.763l-.254-.737-.229.737H558.3l.61.458-.229.737.61-.458.636.458L559.7,49.9Z" transform="translate(-545.484 -42.292)" fill="#ffff01"/>
        <path id="Path_41" data-name="Path 41" d="M555.307,38.033l.61-.458.61.458L556.3,37.3l.636-.458h-.788l-.229-.737-.229.737H554.9l.636.458Z" transform="translate(-542.949 -32.896)" fill="#ffff01"/>
        <path id="Path_42" data-name="Path 42" d="M546.717,26.9l-.229.763-.788-.025.636.458-.229.737.61-.458.61.458L547.1,28.1l.636-.458h-.788Z" transform="translate(-536.088 -26.035)" fill="#ffff01"/>
      </g>
      <path id="Path_43" data-name="Path 43" d="M521.7,98.339V96h1.678v.254h-1.373v.737h1.3v.254h-1.3v.814h1.424v.28Z" transform="translate(-390.722 -72.759)" fill="#0f218b"/>
      <path id="Path_44" data-name="Path 44" d="M532.8,98.339V96h1.678v.254h-1.373v.737h1.3v.28h-1.3v.788h1.424v.28Z" transform="translate(-398.999 -72.759)" fill="#0f218b"/>
      <path id="Path_45" data-name="Path 45" d="M542.926,96h.305v1.348a1.644,1.644,0,0,1-.076.559.7.7,0,0,1-.28.331,1.137,1.137,0,0,1-.559.127,1.419,1.419,0,0,1-.534-.1.646.646,0,0,1-.305-.331,1.81,1.81,0,0,1-.076-.585V96h.305v1.348a1.892,1.892,0,0,0,.051.458.361.361,0,0,0,.2.229.7.7,0,0,0,.331.076.647.647,0,0,0,.483-.153.85.85,0,0,0,.153-.585V96Z" transform="translate(-405.413 -72.759)" fill="#0f218b"/>
      <path id="Path_46" data-name="Path 46" d="M550.7,98.339V96h1.043a1.282,1.282,0,0,1,.483.076.556.556,0,0,1,.254.229.584.584,0,0,1,.1.356.642.642,0,0,1-.153.432.864.864,0,0,1-.509.229c.076.051.153.076.178.127a1.016,1.016,0,0,1,.254.305l.407.636h-.381l-.305-.483a2.35,2.35,0,0,0-.229-.331.431.431,0,0,0-.153-.153.361.361,0,0,0-.153-.051h-.534v1.043H550.7Zm.305-1.322h.661a1,1,0,0,0,.331-.051.269.269,0,0,0,.178-.153.306.306,0,0,0,.051-.2.408.408,0,0,0-.127-.28.528.528,0,0,0-.381-.1h-.737v.788Z" transform="translate(-412.348 -72.759)" fill="#0f218b"/>
      <path id="Path_47" data-name="Path 47" d="M559.6,97.046a1.327,1.327,0,0,1,.305-.915,1.037,1.037,0,0,1,.814-.331,1.083,1.083,0,0,1,.992.585,1.515,1.515,0,0,1-.025,1.271,1.109,1.109,0,0,1-.407.432,1.089,1.089,0,0,1-.559.153,1.083,1.083,0,0,1-.992-.585,1.318,1.318,0,0,1-.127-.61m.305,0a.908.908,0,0,0,.229.661.77.77,0,0,0,.559.254.736.736,0,0,0,.585-.254,1,1,0,0,0,.229-.712,1.071,1.071,0,0,0-.1-.509.725.725,0,0,0-.28-.331.768.768,0,0,0-.407-.127.748.748,0,0,0-.559.229,1.052,1.052,0,0,0-.254.788" transform="translate(-418.985 -72.61)" fill="#0f218b"/>
      <path id="Path_48" data-name="Path 48" d="M570,98.339V96h.89a1.351,1.351,0,0,1,.356.025.716.716,0,0,1,.28.1.406.406,0,0,1,.178.229.7.7,0,0,1,.076.331.693.693,0,0,1-.178.509.96.96,0,0,1-.687.2h-.61v.941Zm.305-1.246h.61a.68.68,0,0,0,.432-.1.421.421,0,0,0,.127-.305.43.43,0,0,0-.076-.254.227.227,0,0,0-.2-.127.791.791,0,0,0-.28-.025h-.61v.814Z" transform="translate(-426.74 -72.759)" fill="#0f218b"/>
      <path id="Path_49" data-name="Path 49" d="M578.6,98.339V96h1.7v.254h-1.4v.737h1.3v.28h-1.3v.788h1.449v.28Z" transform="translate(-433.154 -72.759)" fill="#0f218b"/>
      <path id="Path_50" data-name="Path 50" d="M586.1,98.339,586.99,96h.331l.966,2.339h-.356l-.28-.712h-.992l-.254.712Zm.687-.966h.788l-.254-.661c-.076-.2-.127-.356-.178-.483a3.079,3.079,0,0,1-.127.458Z" transform="translate(-438.747 -72.759)" fill="#0f218b"/>
      <path id="Path_51" data-name="Path 51" d="M481.026,95.9h.305v1.348a1.644,1.644,0,0,1-.076.559.7.7,0,0,1-.28.331,1.137,1.137,0,0,1-.559.127,1.419,1.419,0,0,1-.534-.1.646.646,0,0,1-.305-.331,1.81,1.81,0,0,1-.076-.585V95.9h.305v1.348a1.894,1.894,0,0,0,.051.458.361.361,0,0,0,.2.229.7.7,0,0,0,.331.076.647.647,0,0,0,.483-.153.85.85,0,0,0,.153-.585Z" transform="translate(-359.252 -72.685)" fill="#0f218b"/>
      <path id="Path_52" data-name="Path 52" d="M488.7,98.239V95.9h.331l1.221,1.831V95.9h.305v2.339h-.331l-1.221-1.831v1.831Z" transform="translate(-366.113 -72.685)" fill="#0f218b"/>
      <rect id="Rectangle_21" data-name="Rectangle 21" width="0.305" height="2.339" transform="translate(125.003 23.215)" fill="#0f218b"/>
      <path id="Path_53" data-name="Path 53" d="M501.3,96.946a1.327,1.327,0,0,1,.305-.915,1.037,1.037,0,0,1,.814-.331,1.083,1.083,0,0,1,.992.585,1.515,1.515,0,0,1-.025,1.271,1.109,1.109,0,0,1-.407.432,1.089,1.089,0,0,1-.559.153,1.083,1.083,0,0,1-.992-.585,1.319,1.319,0,0,1-.127-.61m.305,0a.909.909,0,0,0,.229.661.77.77,0,0,0,.559.254.736.736,0,0,0,.585-.254,1,1,0,0,0,.229-.712,1.071,1.071,0,0,0-.1-.509.725.725,0,0,0-.28-.331.769.769,0,0,0-.407-.127.748.748,0,0,0-.559.229,1.053,1.053,0,0,0-.254.788" transform="translate(-375.509 -72.535)" fill="#0f218b"/>
      <path id="Path_54" data-name="Path 54" d="M511.6,98.239V95.9h.331l1.221,1.831V95.9h.305v2.339h-.305l-1.246-1.831v1.831Z" transform="translate(-383.19 -72.685)" fill="#0f218b"/>
      <g id="Group_4" data-name="Group 4" transform="translate(0 22.605)">
        <path id="Path_55" data-name="Path 55" d="M6.905,97H6.6V94.3H8.1v.28h-1.2v.992H8.024v.28H6.905Z" transform="translate(-6.6 -94.097)" fill="#0f218b"/>
        <path id="Path_56" data-name="Path 56" d="M15.456,97.843a1.027,1.027,0,0,1-.254.763.939.939,0,0,1-.687.28,1.052,1.052,0,0,1-.483-.127A.75.75,0,0,1,13.7,98.4a1.293,1.293,0,0,1-.1-.559,1.027,1.027,0,0,1,.254-.763.861.861,0,0,1,.687-.28.843.843,0,0,1,.661.28A1.108,1.108,0,0,1,15.456,97.843Zm-1.526,0a.945.945,0,0,0,.153.585.617.617,0,0,0,.915,0,1.2,1.2,0,0,0,0-1.17.617.617,0,0,0-.915,0A.945.945,0,0,0,13.931,97.843Z" transform="translate(-11.82 -95.961)" fill="#0f218b"/>
        <path id="Path_57" data-name="Path 57" d="M24.473,98.934v-1.3a.5.5,0,0,0-.1-.356.5.5,0,0,0-.356-.127.544.544,0,0,0-.458.178.818.818,0,0,0-.153.559V98.96H23.1V96.925h.254l.051.28h.025a.557.557,0,0,1,.254-.229.849.849,0,0,1,.381-.076.639.639,0,0,1,.737.737V98.96h-.331Z" transform="translate(-18.904 -96.035)" fill="#0f218b"/>
        <path id="Path_58" data-name="Path 58" d="M33.2,96.119h0a.787.787,0,0,1-.661.305.774.774,0,0,1-.61-.28,1.139,1.139,0,0,1-.229-.763,1.262,1.262,0,0,1,.229-.788.774.774,0,0,1,.61-.28.739.739,0,0,1,.636.305H33.2l-.025-.153V93.5h.305v2.873h-.254Zm-.61.051a.544.544,0,0,0,.458-.178.818.818,0,0,0,.153-.559v-.076a.978.978,0,0,0-.153-.61.544.544,0,0,0-.458-.178.494.494,0,0,0-.407.2,1.239,1.239,0,0,0-.153.636.945.945,0,0,0,.153.585A.42.42,0,0,0,32.59,96.17Z" transform="translate(-25.318 -93.5)" fill="#0f218b"/>
        <path id="Path_59" data-name="Path 59" d="M42.656,97.843a1.027,1.027,0,0,1-.254.763.939.939,0,0,1-.687.28,1.052,1.052,0,0,1-.483-.127A.75.75,0,0,1,40.9,98.4a1.293,1.293,0,0,1-.1-.559,1.027,1.027,0,0,1,.254-.763.861.861,0,0,1,.687-.28.843.843,0,0,1,.661.28A1.108,1.108,0,0,1,42.656,97.843Zm-1.526,0a.945.945,0,0,0,.153.585.617.617,0,0,0,.915,0,1.2,1.2,0,0,0,0-1.17.617.617,0,0,0-.915,0A.945.945,0,0,0,41.131,97.843Z" transform="translate(-32.104 -95.961)" fill="#0f218b"/>
        <path id="Path_60" data-name="Path 60" d="M55.8,97H54.3V94.3h1.5v.28h-1.2v.865h1.119v.28H54.605v.992h1.2Z" transform="translate(-42.171 -94.097)" fill="#0f218b"/>
        <path id="Path_61" data-name="Path 61" d="M62.531,97v1.322a.5.5,0,0,0,.1.356.5.5,0,0,0,.356.127.544.544,0,0,0,.458-.178.864.864,0,0,0,.153-.559V97H63.9v2.009h-.254l-.051-.28h-.025a.557.557,0,0,1-.254.229.849.849,0,0,1-.381.076A.639.639,0,0,1,62.2,98.3V97Z" transform="translate(-48.062 -96.11)" fill="#0f218b"/>
        <path id="Path_62" data-name="Path 62" d="M72.341,96.8a.564.564,0,0,1,.229.025l-.051.28a.7.7,0,0,0-.229-.025.531.531,0,0,0-.407.2.671.671,0,0,0-.178.483V98.86H71.4V96.851h.254l.025.381h.025a1.084,1.084,0,0,1,.28-.305A.608.608,0,0,1,72.341,96.8Z" transform="translate(-54.923 -95.961)" fill="#0f218b"/>
        <path id="Path_63" data-name="Path 63" d="M78.856,97.843a1.027,1.027,0,0,1-.254.763.939.939,0,0,1-.687.28,1.052,1.052,0,0,1-.483-.127A.75.75,0,0,1,77.1,98.4a1.293,1.293,0,0,1-.1-.559,1.027,1.027,0,0,1,.254-.763.861.861,0,0,1,.687-.28.843.843,0,0,1,.661.28A1.108,1.108,0,0,1,78.856,97.843Zm-1.526,0a.945.945,0,0,0,.153.585.617.617,0,0,0,.915,0,1.2,1.2,0,0,0,0-1.17.617.617,0,0,0-.915,0A.945.945,0,0,0,77.331,97.843Z" transform="translate(-59.099 -95.961)" fill="#0f218b"/>
        <path id="Path_64" data-name="Path 64" d="M87.441,98.96a.812.812,0,0,1-.356-.076.8.8,0,0,1-.28-.229H86.78a1.564,1.564,0,0,1,.025.331v.839H86.5v-2.9h.254l.051.28h.025a.8.8,0,0,1,.28-.229.812.812,0,0,1,.356-.076.706.706,0,0,1,.61.28,1.386,1.386,0,0,1,0,1.526A.843.843,0,0,1,87.441,98.96Zm-.051-1.831a.544.544,0,0,0-.458.178.953.953,0,0,0-.153.534v.076a.978.978,0,0,0,.153.61.544.544,0,0,0,.458.178.494.494,0,0,0,.407-.2,1.2,1.2,0,0,0,0-1.17A.494.494,0,0,0,87.39,97.129Z" transform="translate(-66.183 -96.035)" fill="#0f218b"/>
        <path id="Path_65" data-name="Path 65" d="M96.066,98.811a.957.957,0,0,1-.712-.28,1.027,1.027,0,0,1-.254-.763,1.262,1.262,0,0,1,.229-.788.861.861,0,0,1,1.246-.025.951.951,0,0,1,.229.661v.2h-1.4a.839.839,0,0,0,.178.534.6.6,0,0,0,.483.178A1.77,1.77,0,0,0,96.7,98.4v.28a1.433,1.433,0,0,1-.305.1A1.243,1.243,0,0,1,96.066,98.811ZM95.99,96.98a.517.517,0,0,0-.381.153.747.747,0,0,0-.178.432H96.5a.673.673,0,0,0-.127-.432A.517.517,0,0,0,95.99,96.98Z" transform="translate(-72.596 -95.886)" fill="#0f218b"/>
        <path id="Path_66" data-name="Path 66" d="M105.256,97.843a1.027,1.027,0,0,1-.254.763.939.939,0,0,1-.687.28,1.052,1.052,0,0,1-.483-.127.75.75,0,0,1-.331-.356,1.293,1.293,0,0,1-.1-.559,1.027,1.027,0,0,1,.254-.763.861.861,0,0,1,.687-.28.843.843,0,0,1,.661.28A1.108,1.108,0,0,1,105.256,97.843Zm-1.526,0a.945.945,0,0,0,.153.585.617.617,0,0,0,.915,0,1.2,1.2,0,0,0,0-1.17.617.617,0,0,0-.915,0A.945.945,0,0,0,103.731,97.843Z" transform="translate(-78.786 -95.961)" fill="#0f218b"/>
        <path id="Path_67" data-name="Path 67" d="M117.7,96.119h0a.787.787,0,0,1-.661.305.774.774,0,0,1-.61-.28,1.139,1.139,0,0,1-.229-.763,1.262,1.262,0,0,1,.229-.788.774.774,0,0,1,.61-.28.739.739,0,0,1,.636.305h.025l-.025-.153V93.5h.305v2.873h-.254Zm-.61.051a.544.544,0,0,0,.458-.178.818.818,0,0,0,.153-.559v-.076a.978.978,0,0,0-.153-.61.544.544,0,0,0-.458-.178.494.494,0,0,0-.407.2,1.2,1.2,0,0,0,0,1.17A.393.393,0,0,0,117.09,96.17Z" transform="translate(-88.331 -93.5)" fill="#0f218b"/>
        <path id="Path_68" data-name="Path 68" d="M125.7,94.2a.215.215,0,0,1,.051-.153.184.184,0,0,1,.254,0,.254.254,0,0,1,0,.305.184.184,0,0,1-.254,0A.215.215,0,0,1,125.7,94.2Zm.331,2.568h-.305V94.763h.305Z" transform="translate(-95.416 -93.873)" fill="#0f218b"/>
        <path id="Path_69" data-name="Path 69" d="M134.6,96.209a.655.655,0,0,1-.254.559,1.184,1.184,0,0,1-.712.2,1.831,1.831,0,0,1-.737-.127v-.305a1.458,1.458,0,0,0,.356.1,1.963,1.963,0,0,0,.381.051.9.9,0,0,0,.483-.127.378.378,0,0,0,.153-.331.508.508,0,0,0-.051-.229.358.358,0,0,0-.178-.153,3.651,3.651,0,0,0-.407-.178,1.285,1.285,0,0,1-.534-.331.733.733,0,0,1-.153-.483.558.558,0,0,1,.229-.483.919.919,0,0,1,.61-.178,1.739,1.739,0,0,1,.737.153l-.1.28a1.566,1.566,0,0,0-.661-.153.528.528,0,0,0-.381.1.362.362,0,0,0-.153.305.508.508,0,0,0,.051.229.551.551,0,0,0,.178.153,1.452,1.452,0,0,0,.381.153,1.358,1.358,0,0,1,.585.331A.731.731,0,0,1,134.6,96.209Z" transform="translate(-100.785 -94.022)" fill="#0f218b"/>
        <path id="Path_70" data-name="Path 70" d="M141.063,98.934l-.763-2.009h.331l.432,1.2c.1.28.153.458.178.534h.025c.025-.076.051-.2.127-.407s.229-.661.483-1.348h.331l-.763,2.009h-.381Z" transform="translate(-106.303 -96.035)" fill="#0f218b"/>
        <path id="Path_71" data-name="Path 71" d="M148.9,94.2a.215.215,0,0,1,.051-.153.184.184,0,0,1,.254,0,.254.254,0,0,1,0,.305.184.184,0,0,1-.254,0C148.9,94.331,148.9,94.28,148.9,94.2Zm.331,2.568h-.305V94.763h.305Z" transform="translate(-112.716 -93.873)" fill="#0f218b"/>
        <path id="Path_72" data-name="Path 72" d="M153.005,96.473H152.7V93.6h.305Z" transform="translate(-115.55 -93.575)" fill="#0f218b"/>
        <path id="Path_73" data-name="Path 73" d="M156.631,97v1.322a.5.5,0,0,0,.1.356.5.5,0,0,0,.356.127.544.544,0,0,0,.458-.178.864.864,0,0,0,.153-.559V97H158v2.009h-.254l-.051-.28h-.025a.557.557,0,0,1-.254.229.849.849,0,0,1-.381.076.639.639,0,0,1-.737-.737V97Z" transform="translate(-118.235 -96.11)" fill="#0f218b"/>
        <path id="Path_74" data-name="Path 74" d="M166.541,98.96a.812.812,0,0,1-.356-.076.8.8,0,0,1-.28-.229h-.025a1.564,1.564,0,0,1,.025.331v.839H165.6v-2.9h.254l.051.28h.025a.8.8,0,0,1,.28-.229.812.812,0,0,1,.356-.076.706.706,0,0,1,.61.28,1.386,1.386,0,0,1,0,1.526A.843.843,0,0,1,166.541,98.96Zm-.051-1.831a.544.544,0,0,0-.458.178.953.953,0,0,0-.153.534v.076a.978.978,0,0,0,.153.61.544.544,0,0,0,.458.178.494.494,0,0,0,.407-.2,1.2,1.2,0,0,0,0-1.17A.462.462,0,0,0,166.49,97.129Z" transform="translate(-125.17 -96.035)" fill="#0f218b"/>
        <path id="Path_75" data-name="Path 75" d="M175.641,98.96a.812.812,0,0,1-.356-.076.8.8,0,0,1-.28-.229h-.025a1.564,1.564,0,0,1,.025.331v.839H174.7v-2.9h.254l.051.28h.025a.8.8,0,0,1,.28-.229.812.812,0,0,1,.356-.076.706.706,0,0,1,.61.28,1.386,1.386,0,0,1,0,1.526A.843.843,0,0,1,175.641,98.96Zm-.051-1.831a.544.544,0,0,0-.458.178.953.953,0,0,0-.153.534v.076a.978.978,0,0,0,.153.61.544.544,0,0,0,.458.178.494.494,0,0,0,.407-.2,1.2,1.2,0,0,0,0-1.17A.462.462,0,0,0,175.59,97.129Z" transform="translate(-131.956 -96.035)" fill="#0f218b"/>
        <path id="Path_76" data-name="Path 76" d="M185.156,97.843a1.027,1.027,0,0,1-.254.763.939.939,0,0,1-.687.28,1.052,1.052,0,0,1-.483-.127.75.75,0,0,1-.331-.356,1.293,1.293,0,0,1-.1-.559,1.027,1.027,0,0,1,.254-.763.861.861,0,0,1,.687-.28.843.843,0,0,1,.661.28A1.108,1.108,0,0,1,185.156,97.843Zm-1.526,0a.945.945,0,0,0,.153.585.617.617,0,0,0,.915,0,1.2,1.2,0,0,0,0-1.17.617.617,0,0,0-.915,0A.945.945,0,0,0,183.631,97.843Z" transform="translate(-138.369 -95.961)" fill="#0f218b"/>
        <path id="Path_77" data-name="Path 77" d="M197.105,95.877V97H196.8V94.3h.737a1.169,1.169,0,0,1,.737.178.675.675,0,0,1,.229.559.7.7,0,0,1-.534.712l.737,1.221h-.381l-.661-1.119h-.559Zm0-.28h.432a.786.786,0,0,0,.483-.127.5.5,0,0,0,.153-.407.446.446,0,0,0-.153-.381.875.875,0,0,0-.509-.127h-.407Z" transform="translate(-148.437 -94.097)" fill="#0f218b"/>
        <path id="Path_78" data-name="Path 78" d="M206.266,98.811a.957.957,0,0,1-.712-.28,1.027,1.027,0,0,1-.254-.763,1.262,1.262,0,0,1,.229-.788.861.861,0,0,1,1.246-.025.951.951,0,0,1,.229.661v.2h-1.4a.839.839,0,0,0,.178.534.6.6,0,0,0,.483.178,1.771,1.771,0,0,0,.636-.127v.28a1.434,1.434,0,0,1-.305.1A1.147,1.147,0,0,1,206.266,98.811Zm-.076-1.831a.517.517,0,0,0-.381.153.747.747,0,0,0-.178.432H206.7a.673.673,0,0,0-.127-.432A.517.517,0,0,0,206.19,96.98Z" transform="translate(-154.775 -95.886)" fill="#0f218b"/>
        <path id="Path_79" data-name="Path 79" d="M215.007,96.925v.2l-.381.051a1.1,1.1,0,0,1,.1.178.743.743,0,0,1,.051.229.651.651,0,0,1-.2.483.78.78,0,0,1-.559.178.433.433,0,0,1-.178-.025c-.127.076-.2.153-.2.254a.14.14,0,0,0,.076.127.508.508,0,0,0,.229.051h.356a.935.935,0,0,1,.509.127.474.474,0,0,1,.178.407.586.586,0,0,1-.28.509,1.341,1.341,0,0,1-.788.178,1.085,1.085,0,0,1-.61-.153.436.436,0,0,1-.2-.407.536.536,0,0,1,.127-.331.472.472,0,0,1,.331-.178.254.254,0,0,1-.127-.1.367.367,0,0,1-.051-.178.6.6,0,0,1,.051-.2,1.106,1.106,0,0,1,.178-.153.721.721,0,0,1-.254-.229.584.584,0,0,1-.1-.356.669.669,0,0,1,.2-.509.78.78,0,0,1,.559-.178.953.953,0,0,1,.28.025h.712Zm-1.6,2.339a.313.313,0,0,0,.127.254.892.892,0,0,0,.407.076,1,1,0,0,0,.559-.127.332.332,0,0,0,.178-.305.248.248,0,0,0-.1-.229.76.76,0,0,0-.381-.051h-.356a.469.469,0,0,0-.331.1A.347.347,0,0,0,213.405,99.265Zm.153-1.7a.439.439,0,0,0,.127.331.469.469,0,0,0,.331.1c.305,0,.458-.153.458-.432a.4.4,0,0,0-.458-.458.439.439,0,0,0-.331.127A.4.4,0,0,0,213.558,97.561Z" transform="translate(-160.592 -96.035)" fill="#0f218b"/>
        <path id="Path_80" data-name="Path 80" d="M222.1,94.2a.215.215,0,0,1,.051-.153.184.184,0,0,1,.254,0,.254.254,0,0,1,0,.305.184.184,0,0,1-.254,0A.215.215,0,0,1,222.1,94.2Zm.331,2.568h-.305V94.763h.305Z" transform="translate(-167.303 -93.873)" fill="#0f218b"/>
        <path id="Path_81" data-name="Path 81" d="M227.356,97.843a1.027,1.027,0,0,1-.254.763.939.939,0,0,1-.687.28,1.052,1.052,0,0,1-.483-.127.75.75,0,0,1-.331-.356,1.294,1.294,0,0,1-.1-.559,1.027,1.027,0,0,1,.254-.763.861.861,0,0,1,.687-.28.843.843,0,0,1,.661.28A1.108,1.108,0,0,1,227.356,97.843Zm-1.526,0a.945.945,0,0,0,.153.585.617.617,0,0,0,.915,0,1.2,1.2,0,0,0,0-1.17.617.617,0,0,0-.915,0A.945.945,0,0,0,225.831,97.843Z" transform="translate(-169.839 -95.961)" fill="#0f218b"/>
        <path id="Path_82" data-name="Path 82" d="M236.373,98.934v-1.3a.5.5,0,0,0-.1-.356.5.5,0,0,0-.356-.127.544.544,0,0,0-.458.178.818.818,0,0,0-.153.559V98.96H235V96.925h.254l.051.28h.025a.557.557,0,0,1,.254-.229.849.849,0,0,1,.381-.076.639.639,0,0,1,.737.737V98.96h-.331Z" transform="translate(-176.923 -96.035)" fill="#0f218b"/>
        <path id="Path_83" data-name="Path 83" d="M244.724,99.009l-.051-.28h-.025a.9.9,0,0,1-.305.254.849.849,0,0,1-.381.076.733.733,0,0,1-.483-.153.613.613,0,0,1-.178-.432c0-.407.331-.61.966-.636h.331v-.127a.5.5,0,0,0-.1-.356.432.432,0,0,0-.331-.1,1.238,1.238,0,0,0-.559.153l-.1-.229a1.277,1.277,0,0,1,.331-.127A1.717,1.717,0,0,1,244.19,97a.834.834,0,0,1,.534.153.621.621,0,0,1,.178.509v1.373h-.178Zm-.687-.229a.71.71,0,0,0,.458-.153.6.6,0,0,0,.153-.432v-.178l-.305.025a1.316,1.316,0,0,0-.534.1.362.362,0,0,0-.153.305.3.3,0,0,0,.1.254A.457.457,0,0,0,244.037,98.78Z" transform="translate(-183.113 -96.11)" fill="#0f218b"/>
        <path id="Path_84" data-name="Path 84" d="M252.605,96.473H252.3V93.6h.305Z" transform="translate(-189.824 -93.575)" fill="#0f218b"/>
        <path id="Path_85" data-name="Path 85" d="M256.566,98.811a.957.957,0,0,1-.712-.28,1.027,1.027,0,0,1-.254-.763,1.262,1.262,0,0,1,.229-.788.861.861,0,0,1,1.246-.025.951.951,0,0,1,.229.661v.2h-1.4a.839.839,0,0,0,.178.534.6.6,0,0,0,.483.178,1.77,1.77,0,0,0,.636-.127v.28a1.433,1.433,0,0,1-.305.1A1.243,1.243,0,0,1,256.566,98.811Zm-.076-1.831a.518.518,0,0,0-.381.153.747.747,0,0,0-.178.432H257a.673.673,0,0,0-.127-.432A.517.517,0,0,0,256.49,96.98Z" transform="translate(-192.285 -95.886)" fill="#0f218b"/>
      </g>
      <g id="Group_5" data-name="Group 5" transform="translate(0.076 27.309)">
        <path id="Path_86" data-name="Path 86" d="M6.9,116.068V112h.687v4.068Z" transform="translate(-6.9 -112)" fill="#0f218b"/>
        <path id="Path_87" data-name="Path 87" d="M13.858,112.61v3.458h-.687v-3.433H11.9V112h3.255v.61Z" transform="translate(-10.629 -112)" fill="#0f218b"/>
        <path id="Path_88" data-name="Path 88" d="M24.493,115.228l-.381.915H23.4l1.78-4.043h.712l1.78,4.043h-.737l-.381-.915Zm1.017-2.416-.763,1.805h1.526Z" transform="translate(-19.204 -112.075)" fill="#0f218b"/>
        <path id="Path_89" data-name="Path 89" d="M44.641,115.433v.61H42.2V112h.687v3.433Z" transform="translate(-33.224 -112)" fill="#0f218b"/>
        <path id="Path_90" data-name="Path 90" d="M54.4,116.068V112h.687v4.068Z" transform="translate(-42.322 -112)" fill="#0f218b"/>
        <path id="Path_91" data-name="Path 91" d="M60.293,115.228l-.381.915H59.2l1.78-4.043h.712l1.78,4.043h-.737l-.381-.915Zm1.017-2.416-.763,1.805h1.526Z" transform="translate(-45.901 -112.075)" fill="#0f218b"/>
        <path id="Path_92" data-name="Path 92" d="M85.528,112.5l-.28.61a2.58,2.58,0,0,0-1.2-.381c-.407,0-.661.153-.661.432,0,.89,2.187.407,2.187,1.882,0,.712-.636,1.17-1.526,1.17a2.466,2.466,0,0,1-1.653-.636l.305-.585a2.117,2.117,0,0,0,1.373.585c.483,0,.763-.178.763-.483,0-.915-2.187-.407-2.187-1.831,0-.687.585-1.119,1.475-1.119A2,2,0,0,1,85.528,112.5Z" transform="translate(-63.202 -112.097)" fill="#0f218b"/>
        <path id="Path_93" data-name="Path 93" d="M97.7,116.068,96.1,112h.737l1.246,3.306L99.355,112h.712l-1.627,4.043H97.7Z" transform="translate(-73.419 -112)" fill="#0f218b"/>
        <path id="Path_94" data-name="Path 94" d="M113.8,116.068V112h.687v4.068Z" transform="translate(-86.618 -112)" fill="#0f218b"/>
        <path id="Path_95" data-name="Path 95" d="M120.241,115.458h2.492v.61H119.3v-.509l2.466-2.95h-2.39V112h3.306v.483Z" transform="translate(-90.719 -112)" fill="#0f218b"/>
        <path id="Path_96" data-name="Path 96" d="M135.441,115.458h2.492v.61H134.5v-.509l2.466-2.95h-2.39V112h3.306v.483Z" transform="translate(-102.054 -112)" fill="#0f218b"/>
        <path id="Path_97" data-name="Path 97" d="M151.687,112.61V113.7h1.983v.61h-1.983v1.119h2.288v.61H151V112h2.9v.61Z" transform="translate(-114.359 -112)" fill="#0f218b"/>
        <path id="Path_98" data-name="Path 98" d="M167.731,114.822h-1.144v1.221H165.9V112h1.653c1.043,0,1.627.509,1.627,1.373a1.347,1.347,0,0,1-.839,1.322l.915,1.348h-.788Zm-.178-.585c.636,0,.992-.254.992-.814,0-.534-.356-.788-.992-.788h-.966v1.6Z" transform="translate(-125.47 -112)" fill="#0f218b"/>
        <path id="Path_99" data-name="Path 99" d="M181.393,115.228l-.381.915H180.3l1.78-4.043h.712l1.78,4.043h-.737l-.381-.915Zm1.017-2.416-.763,1.805h1.526Z" transform="translate(-136.208 -112.075)" fill="#0f218b"/>
        <path id="Path_100" data-name="Path 100" d="M204.3,120.558V120.1h1.424v.458Z" transform="translate(-154.106 -118.04)" fill="#0f218b"/>
        <path id="Path_101" data-name="Path 101" d="M219.3,116.068V112h.687v4.068Z" transform="translate(-165.292 -112)" fill="#0f218b"/>
        <path id="Path_102" data-name="Path 102" d="M226.258,112.61v3.458h-.687v-3.433H224.3V112h3.229v.61Z" transform="translate(-169.02 -112)" fill="#0f218b"/>
        <path id="Path_103" data-name="Path 103" d="M236.793,115.228l-.381.915H235.7l1.78-4.043h.712l1.78,4.043h-.737l-.381-.915Zm1.017-2.416-.763,1.805h1.526Z" transform="translate(-177.521 -112.075)" fill="#0f218b"/>
        <path id="Path_104" data-name="Path 104" d="M256.941,115.433v.61H254.5V112h.687v3.433Z" transform="translate(-191.541 -112)" fill="#0f218b"/>
        <path id="Path_105" data-name="Path 105" d="M266.7,116.068V112h.687v4.068Z" transform="translate(-200.639 -112)" fill="#0f218b"/>
        <path id="Path_106" data-name="Path 106" d="M274.287,112.61V113.7h1.983v.61h-1.983v1.119h2.288v.61H273.6V112h2.9v.61Z" transform="translate(-205.784 -112)" fill="#0f218b"/>
        <path id="Path_107" data-name="Path 107" d="M296.028,112.5l-.28.61a2.58,2.58,0,0,0-1.2-.381c-.407,0-.661.153-.661.432,0,.89,2.187.407,2.187,1.882,0,.712-.636,1.17-1.526,1.17a2.466,2.466,0,0,1-1.653-.636l.305-.585a2.117,2.117,0,0,0,1.373.585c.483,0,.763-.178.763-.483,0-.915-2.187-.407-2.187-1.831,0-.687.585-1.119,1.475-1.119A2.039,2.039,0,0,1,296.028,112.5Z" transform="translate(-220.177 -112.097)" fill="#0f218b"/>
        <path id="Path_108" data-name="Path 108" d="M311.809,114.39a1.755,1.755,0,0,1-3.509,0V112h.687v2.365a1.015,1.015,0,0,0,1.093,1.093,1,1,0,0,0,1.068-1.093V112h.687v2.39Z" transform="translate(-231.661 -112)" fill="#0f218b"/>
        <path id="Path_109" data-name="Path 109" d="M325.9,116.068V112h.687v4.068Z" transform="translate(-244.786 -112)" fill="#0f218b"/>
        <path id="Path_110" data-name="Path 110" d="M334.428,112.5l-.28.61a2.58,2.58,0,0,0-1.2-.381c-.407,0-.661.153-.661.432,0,.89,2.187.407,2.187,1.882,0,.712-.636,1.17-1.526,1.17a2.466,2.466,0,0,1-1.653-.636l.305-.585a2.117,2.117,0,0,0,1.373.585c.483,0,.763-.178.763-.483,0-.915-2.187-.407-2.187-1.831,0-.687.585-1.119,1.475-1.119A2.039,2.039,0,0,1,334.428,112.5Z" transform="translate(-248.813 -112.097)" fill="#0f218b"/>
        <path id="Path_111" data-name="Path 111" d="M348.628,112.5l-.28.61a2.58,2.58,0,0,0-1.2-.381c-.407,0-.661.153-.661.432,0,.89,2.187.407,2.187,1.882,0,.712-.636,1.17-1.526,1.17a2.466,2.466,0,0,1-1.653-.636l.305-.585a2.117,2.117,0,0,0,1.373.585c.483,0,.763-.178.763-.483,0-.915-2.187-.407-2.187-1.831,0-.687.585-1.119,1.475-1.119A2.039,2.039,0,0,1,348.628,112.5Z" transform="translate(-259.402 -112.097)" fill="#0f218b"/>
        <path id="Path_112" data-name="Path 112" d="M361.786,112.61V113.7h1.983v.61h-1.983v1.119h2.289v.61H361.1V112H364v.61Z" transform="translate(-271.035 -112)" fill="#0f218b"/>
        <path id="Path_113" data-name="Path 113" d="M381.2,120.558V120.1h1.424v.458Z" transform="translate(-286.024 -118.04)" fill="#0f218b"/>
        <path id="Path_114" data-name="Path 114" d="M396.2,116.068V112h.687v4.068Z" transform="translate(-297.21 -112)" fill="#0f218b"/>
        <path id="Path_115" data-name="Path 115" d="M403.158,112.61v3.458h-.687v-3.433H401.2V112h3.255v.61Z" transform="translate(-300.939 -112)" fill="#0f218b"/>
        <path id="Path_116" data-name="Path 116" d="M413.693,115.228l-.381.915H412.6l1.78-4.043h.712l1.78,4.043h-.737l-.381-.915Zm1.017-2.416-.763,1.805h1.526Z" transform="translate(-309.44 -112.075)" fill="#0f218b"/>
        <path id="Path_117" data-name="Path 117" d="M433.841,115.433v.61H431.4V112h.687v3.433Z" transform="translate(-323.459 -112)" fill="#0f218b"/>
        <path id="Path_118" data-name="Path 118" d="M443.6,116.068V112h.687v4.068Z" transform="translate(-332.557 -112)" fill="#0f218b"/>
        <path id="Path_119" data-name="Path 119" d="M451.187,112.61V113.7h1.983v.61h-1.983v1.119h2.289v.61H450.5V112h2.9v.61Z" transform="translate(-337.703 -112)" fill="#0f218b"/>
        <path id="Path_120" data-name="Path 120" d="M468.248,116.068l-2.161-2.9v2.9H465.4V112h.661l2.161,2.9V112h.661v4.068Z" transform="translate(-348.814 -112)" fill="#0f218b"/>
        <path id="Path_121" data-name="Path 121" d="M490.928,112.5l-.28.61a2.58,2.58,0,0,0-1.2-.381c-.407,0-.661.153-.661.432,0,.89,2.187.407,2.187,1.882,0,.712-.636,1.17-1.526,1.17a2.466,2.466,0,0,1-1.653-.636l.305-.585a2.117,2.117,0,0,0,1.373.585c.483,0,.763-.178.763-.483,0-.915-2.187-.407-2.187-1.831,0-.687.585-1.119,1.475-1.119A2.039,2.039,0,0,1,490.928,112.5Z" transform="translate(-365.518 -112.097)" fill="#0f218b"/>
        <path id="Path_122" data-name="Path 122" d="M505.787,112.61l-.407.509a1.531,1.531,0,0,0-1.119-.509,1.424,1.424,0,1,0,0,2.848,1.6,1.6,0,0,0,1.119-.483l.407.458a2.277,2.277,0,0,1-1.577.661,2.048,2.048,0,1,1,.025-4.094A2.283,2.283,0,0,1,505.787,112.61Z" transform="translate(-376.182 -112)" fill="#0f218b"/>
        <path id="Path_123" data-name="Path 123" d="M522.148,116.068V114.39h-2.161v1.678H519.3V112h.687v1.755h2.136V112h.687v4.068Z" transform="translate(-389.009 -112)" fill="#0f218b"/>
        <path id="Path_124" data-name="Path 124" d="M539.292,116.143l-.966-3.153-.966,3.153h-.712L535.3,112.1h.737l.992,3.306.966-3.28h.661l.992,3.306.966-3.306h.712l-1.348,4.043h-.687Z" transform="translate(-400.94 -112.075)" fill="#0f218b"/>
        <path id="Path_125" data-name="Path 125" d="M561.587,112.61V113.7h1.983v.61h-1.983v1.119h2.288v.61H560.9V112h2.9v.61Z" transform="translate(-420.031 -112)" fill="#0f218b"/>
        <path id="Path_126" data-name="Path 126" d="M575.8,116.068V112h.687v4.068Z" transform="translate(-431.142 -112)" fill="#0f218b"/>
        <path id="Path_127" data-name="Path 127" d="M582.341,115.458h2.492v.61H581.4v-.509l2.466-2.95h-2.39V112h3.306v.483Z" transform="translate(-435.318 -112)" fill="#0f218b"/>
      </g>
      <g id="Group_6" data-name="Group 6" transform="translate(157.347 2.492)">
        <rect id="Rectangle_22" data-name="Rectangle 22" width="4.679" height="7.883" fill="#1a9432"/>
      </g>
      <g id="Group_7" data-name="Group 7" transform="translate(162.025 2.492)">
        <rect id="Rectangle_23" data-name="Rectangle 23" width="4.679" height="7.883" fill="#fff"/>
      </g>
      <g id="Group_8" data-name="Group 8" transform="translate(166.704 2.492)">
        <rect id="Rectangle_24" data-name="Rectangle 24" width="4.679" height="7.883" fill="#ff0001"/>
      </g>
      <g id="Group_10" data-name="Group 10" transform="translate(159.799 11.369)">
        <g id="Group_9" data-name="Group 9">
          <path id="Path_128" data-name="Path 128" d="M635.11,50.046a13.685,13.685,0,0,1,8.925,0c1.2,6.459-4.246,9.891-4.246,9.891s-5.391-2.517-4.679-9.891" transform="translate(-635.045 -49.311)" fill="#ff0001"/>
        </g>
      </g>
      <path id="Path_129" data-name="Path 129" d="M646.487,57.553V55.9h-2.034v1.653H642.8v2.034h1.653V61.24h2.034V59.587h1.653V57.553Z" transform="translate(-481.029 -42.856)" fill="#fff"/>
    </g>
    <rect id="Rectangle_25" data-name="Rectangle 25" width="160.271" height="19.503" transform="translate(17.686 39.995)" fill="#75706f"/>
    <text id="MENTOR" transform="translate(22.007 52.195)" fill="#fff" font-size="8" font-family="Montserrat-Regular, Montserrat"><tspan x="0" y="0">MENTOR</tspan></text>
    <path id="Path_130" data-name="Path 130" d="M13.716,146.544V145.07H12.292V143.9h-.61v1.17H8.809V143.9H8.224v1.17H6.8v1.475H8.224v1.144H6.8v1.475H8.224v1.144H6.8v1.475H8.224v1.144H6.8V154.4H8.224v1.144H6.8v1.475H8.224v1.144H6.8v1.475H8.224v1.144H6.8v1.475H8.224v1.221h.585v-1.221h2.873v1.221h.585v-1.221h1.449v-1.475H12.292V159.64h1.424v-1.475H12.292v-1.144h1.424v-1.475H12.292V154.4h1.424v-1.475H12.292v-1.144h1.424v-1.5H12.292v-1.144h1.424v-1.475H12.292v-1.144h1.424Zm-2.034,14.189H8.809v-1.144h2.873Zm0-2.619H8.809V156.97h2.873Zm0-2.619H8.809v-1.144h2.873Zm0-2.594H8.809v-1.144h2.873Zm0-2.619H8.809v-1.144h2.873Zm0-2.594H8.809v-1.144h2.873Z" transform="translate(-0.149 -103.879)" fill="#75706f" fill-rule="evenodd"/>
  </g>
</svg>
